<?xml version="1.0" standalone="no"?><!DOCTYPE svg PUBLIC "-//W3C//DTD SVG 1.1//EN" "http://www.w3.org/Graphics/SVG/1.1/DTD/svg11.dtd"><svg class="icon" width="200px" height="200.00px" viewBox="0 0 1024 1024" version="1.1" xmlns="http://www.w3.org/2000/svg"><path fill="#333333" d="M522.518404 0c-276.367246 0-501.223192 224.846728-501.223192 501.203642 0 276.354888 224.855945 501.201616 501.223192 501.201616 276.367246 0 501.224205-224.846728 501.224205-501.201616C1023.742609 224.845715 798.884637 0 522.518404 0zM522.518404 951.639085c-248.389075 0-450.454892-202.056599-450.454892-450.435443 0-248.380972 202.065817-450.437469 450.454892-450.437469s450.455905 202.056599 450.455905 450.437469C972.973296 749.581574 770.907479 951.639085 522.518404 951.639085zM394.853185 257.682616c20.922344 0 37.910987-16.972638 37.910987-37.910379 0-20.936728-16.988541-37.893159-37.910987-37.893159-20.938552 0-37.910987 16.956532-37.910987 37.893159C356.943211 240.709979 373.914532 257.682616 394.853185 257.682616zM650.282791 257.682616c20.922344 0 37.894779-16.972638 37.894779-37.910379 0-20.936728-16.972334-37.893159-37.894779-37.893159-20.938552 0-37.909974 16.956532-37.909974 37.893159C612.371906 240.709979 629.344239 257.682616 650.282791 257.682616zM522.518404 257.682616c20.937539 0 37.912-16.972638 37.912-37.910379 0-20.936728-16.975373-37.893159-37.912-37.893159s-37.910987 16.956532-37.910987 37.893159C484.606404 240.709979 501.580764 257.682616 522.518404 257.682616zM644.465097 674.918824c29.715284-26.161034 67.726452-71.571318 67.726452-132.600833 0-89.816428-71.525634-186.771338-187.077656-186.771338-112.891601 0-182.76521 96.954911-182.76521 186.771338 0 65.970396 32.425238 108.73667 59.97422 133.161705-43.661826 29.81425-92.282057 87.00842-92.282057 176.493815 0 14.012789 11.369285 25.38258 25.384606 25.38258s25.384606-11.369791 25.384606-25.38258c0-112.68658 94.612355-148.102764 98.528939-149.50773 9.701964-3.387011 16.329514-12.327336 16.90558-22.571533 0.562797-10.263342-5.171835-19.88194-14.426377-24.325766-2.809122-1.356446-68.700305-33.910936-68.700305-113.250389 0-65.408613 50.471707-136.005166 131.99691-136.005166 84.200717 0 136.30733 70.597465 136.30733 136.005166 0 68.499133-76.169113 113.778746-76.880813 114.208035-8.525621 4.924674-13.434392 14.325588-12.592122 24.144548 0.826063 9.815921 7.272396 18.243083 16.510731 21.647315 1.025514 0.381579 102.347367 38.985426 102.347367 149.656533 0 14.012789 11.368272 25.38258 25.383593 25.38258 14.014409 0 25.384606-11.369791 25.384606-25.38258C741.573775 755.531661 684.59202 701.210428 644.465097 674.918824z" /></svg>