<?xml version="1.0" standalone="no"?><!DOCTYPE svg PUBLIC "-//W3C//DTD SVG 1.1//EN" "http://www.w3.org/Graphics/SVG/1.1/DTD/svg11.dtd"><svg class="icon" width="200px" height="200.00px" viewBox="0 0 1024 1024" version="1.1" xmlns="http://www.w3.org/2000/svg"><path fill="#333333" d="M522.710283 0c-275.538779 0-499.706581 224.155548-499.706581 499.688149s224.166789 499.686124 499.706581 499.686124c275.545868 0 499.708606-224.153522 499.708606-499.686124C1022.420915 224.155548 798.255139 0 522.710283 0zM522.710283 948.235006C275.373047 948.235006 74.147021 747.018195 74.147021 499.688048S275.373047 51.140077 522.710283 51.140077c247.342299 0 448.567415 201.218837 448.567415 448.546958C971.276685 747.018195 770.049545 948.235006 522.710283 948.235006zM405.759853 272.15224c2.012985-13.95094-7.623966-26.851283-21.558195-28.915815-14.001069-2.000833-26.936452 7.590242-29.034405 21.507762-0.150794 0.982643-16.115327 99.935402-118.934148 237.375809-8.458954 11.304396-6.143266 27.335059 5.158598 35.79057 4.595829 3.429782 9.974997 5.093581 15.300593 5.093581 7.773747 0 15.468603-3.546144 20.493522-10.254913 8.942731-11.954158 17.212407-23.606727 24.972989-34.994166l0 220.345269c0 14.118849 11.451646 25.572115 25.570089 25.572115 14.116418 0 25.573127-11.450127 25.573127-25.572115L353.302024 412.8484C396.94665 329.300892 405.301395 275.300689 405.759853 272.15224zM745.396373 428.304186c14.117431 0 25.571102-11.452152 25.571102-25.572115 0-14.114899-11.450633-25.570089-25.571102-25.570089L558.811053 377.161982c3.597894-60.892073 1.020215-105.38617 0.711538-110.288549-0.879447-14.08553-12.621642-24.788775-27.139807-23.907303-14.081986 0.899701-24.785737 13.034022-23.904265 27.134642 0.078992 1.170908 2.676925 45.93216-1.080877 107.061109L421.491538 377.16188c-14.116418 0-25.570089 11.454177-25.570089 25.570089 0 14.118849 11.452658 25.572115 25.570089 25.572115l81.450883 0c-10.680459 93.92389-38.016632 205.509836-105.589929 262.680667-10.786693 9.122489-12.136853 25.267488-3.010921 36.037573 5.058338 5.977079 12.284609 9.058687 19.542172 9.058687 5.826487 0 11.702598-1.980578 16.497831-6.042906 81.528794-68.98027 112.731131-197.479365 124.142268-301.734122L745.396415 428.303983 745.396373 428.304186zM753.918116 573.201257c-14.11338 0-25.569077 11.456203-25.569077 25.575153l0 59.16254c0 12.001756-17.580734 26.069968-26.604482 26.069968l-50.958038 0c-6.677679 0-16.598091-2.148589-22.558156-8.189368-4.328673-4.398348-6.377104-10.756919-6.260742-19.444242 0.56368-40.985423 0.431115-179.493441 0.431115-185.370362-0.018229-14.116823-11.452658-25.553886-25.571102-25.553886l-0.018217 0c-14.133634 0.016204-25.573127 11.468356-25.554898 25.58528 0 1.449204 0.132565 144.017625-0.431115 184.63462-0.383619 28.353148 11.199681 46.128527 20.990464 56.053597 20.842708 21.142372 48.179894 23.423526 58.969625 23.423526l50.958038 0c35.215142 0 77.747699-34.442537 77.747699-77.21116l0-59.16254C779.492256 584.65746 768.035547 573.201257 753.918116 573.201257zM616.807045 310.091501l61.197206 26.451562c3.297318 1.433 6.742493 2.09694 10.120728 2.09694 9.891043 0 19.312487-5.759445 23.493302-15.431538 5.607942-12.950979-0.367415-27.998999-13.337129-33.610688l-61.199232-26.453587c-12.918167-5.643084-28.002139 0.367415-33.610081 13.334598C597.860961 289.431791 603.836318 304.481736 616.807045 310.091501z" /></svg>